<?xml version="1.0" encoding="utf-8"?>
<!-- Generator: Adobe Illustrator 16.0.0, SVG Export Plug-In . SVG Version: 6.00 Build 0)  -->
<!DOCTYPE svg PUBLIC "-//W3C//DTD SVG 1.1//EN" "http://www.w3.org/Graphics/SVG/1.1/DTD/svg11.dtd">
<svg version="1.1" id="pen" xmlns="http://www.w3.org/2000/svg" xmlns:xlink="http://www.w3.org/1999/xlink" x="0px" y="0px"
	 width="841.89px" height="595.28px" viewBox="0 0 841.89 595.28" enable-background="new 0 0 841.89 595.28" xml:space="preserve">
<g>
	<path fill="#282E2A" d="M343.831,112.53c0,0-152.349,163.088-163.759,164.43l-25.896,71.54c0,0-0.834,3.5,2.833,4s0.667,0,0.667,0
		l72.166-26c0,0,117-136.833,164.334-163.499l-3.167-23.501l-24.167-23.667L343.831,112.53z"/>
	<g>
		<path fill="#A49D86" d="M184.333,282l-17,41.667c0,0,9-0.333,21,11c0,0,13,0.999,36.667-14.334c0,0-1.667-6.332-12.333-4.666
			c0,0-1-21-22.667-20C190,295.667,190.333,283,184.333,282z"/>
		<path fill="#A49D86" d="M361.5,118l3.25,3.75c0,0-135.166,146.25-168.583,168.25v-5L361.5,118z"/>
		<path fill="#A49D86" d="M214.25,309.25h5.875c0,0,122.125-126.5,166.625-166l-3.5-3C383.25,140.25,242.25,274,214.25,309.25z"/>
	</g>
</g>
</svg>
